<?xml version="1.0" encoding="UTF-8"?>
<svg xmlns="http://www.w3.org/2000/svg" viewBox="0 0 65.28788 14.27978">
  <defs>
    <style>
      .cls-1 {
        fill-rule: evenodd;
      }

      .cls-1, .cls-2 {
        stroke-width: 0px;
      }

      .cls-1, .cls-2, .cls-3 {
        fill: #5865f2;
      }

      .cls-4 {
        letter-spacing: -.00499em;
      }

      .cls-3 {
        font-family: Compose-Black, Compose;
        font-size: 11.54196px;
        font-weight: 800;
      }
    </style>
  </defs>
  <g id="Layer_1" data-name="Layer 1">
    <g id="Layer_3" data-name="Layer 3">
      <path class="cls-2" d="M63.39565,10.94623c-15.98596,4.83752-32.8194-5.48438-48.53741,1.51025-1.17365.52228-.15741,2.24622,1.00946,1.72693,7.55719-3.36298,16.06696-2.37323,24.00275-1.2583,7.97668,1.12067,16.18225,2.33264,24.05688-.05029,1.22864-.37183.70502-2.3028-.53168-1.92859Z"/>
    </g>
    <text class="cls-3" transform="translate(13.66092 9.3627)"><tspan x="0" y="0">Git</tspan><tspan class="cls-4" x="15.21191" y="0">T</tspan><tspan x="21.84863" y="0">heme</tspan></text>
  </g>
  <g id="Github_Theme" data-name="Github Theme">
    <path class="cls-1" d="M6.3708.88043C2.84791.88043,0,3.74934,0,7.29857c0,2.83709,1.82476,5.23863,4.35618,6.08861.31649.0639.43242-.1381.43242-.30802,0-.14879-.01043-.65881-.01043-1.19021-1.7722.38261-2.14125-.76509-2.14125-.76509-.2848-.74383-.70679-.935-.70679-.935-.58004-.39317.04225-.39317.04225-.39317.64342.04251.98104.65881.98104.65881.56948.97752,1.48714.70132,1.85631.53127.05268-.41443.22156-.70132.40086-.86067-1.41346-.14879-2.9006-.70132-2.9006-3.16662,0-.70132.25299-1.2751.65385-1.72135-.06325-.15935-.2848-.81829.06338-1.70022,0,0,.53792-.17005,1.75082.65881.51928-.14049,1.05481-.21196,1.59277-.21256.53792,0,1.08627.07446,1.59264.21256,1.21303-.82885,1.75095-.65881,1.75095-.65881.34818.88193.12649,1.54086.06325,1.70022.41143.44625.65398,1.02003.65398,1.72135,0,2.46531-1.48714,3.00714-2.91116,3.16662.23212.20187.43242.58434.43242,1.19008,0,.86067-.01043,1.55143-.01043,1.76386,0,.17005.11606.37204.43242.30828,2.53142-.85024,4.35618-3.25165,4.35618-6.08874.01043-3.54923-2.84791-6.41814-6.36024-6.41814Z"/>
  </g>
</svg>