<svg xmlns="http://www.w3.org/2000/svg" viewBox="0 0 65.28788 14.27978">
  <style>.cls-1{fill:#5865f2}</style>
  <path class="cls-1" d="M63.39565,10.0658c-15.98596,4.83752-32.8194-5.48438-48.53741,1.51025-1.17365.52228-.15741,2.24622,1.00946,1.72693,7.55719-3.36298,16.06696-2.37323,24.00275-1.2583,7.97668,1.12067,16.18225,2.33264,24.05688-.05029,1.22864-.37183.70502-2.3028-.53168-1.92859ZM20.41288,3.35786h-1.96191v-.104c0-.30029-.10059-.54248-.2998-.72705-.2002-.18457-.4541-.27686-.76172-.27686h-.18555c-.30762,0-.56152.1001-.76172.2998-.2002.2002-.2998.4541-.2998.76172v2.35449c0,.30811.09961.56201.2998.76172.2002.2002.4541.30029.76172.30029h.18555c.31543,0,.57129-.08252.7666-.24805.19629-.16553.29492-.39844.29492-.69824v-.05762h-1.09668v-1.67383h3.05859v1.8584c0,.51562-.12695.98096-.38086,1.39648-.25391.41504-.59668.74023-1.02734.97461s-.9043.35254-1.41992.35254h-.57715c-.51465,0-.98828-.12891-1.41895-.3877-.43164-.25684-.77344-.60645-1.02734-1.0498-.25391-.44189-.38086-.92822-.38086-1.45947v-2.56201c0-.50049.12695-.96777.38086-1.40234.25391-.43506.59766-.78125,1.0332-1.03906.43457-.25781.90527-.38672,1.41309-.38672h.57715c.50781,0,.97949.12549,1.41406.375.43457.25049.7793.58887,1.0332,1.01611.25391.42676.38086.88672.38086,1.37891v.24268ZM21.86698,1.77631c-.2002-.19971-.2998-.43848-.2998-.71533s.09961-.51562.2998-.71582c.2002-.19971.43848-.2998.71582-.2998s.51562.1001.71582.2998c.2002.2002.2998.43896.2998.71582s-.09961.51562-.2998.71533c-.2002.2002-.43848.30029-.71582.30029s-.51562-.1001-.71582-.30029ZM23.56424,8.48188h-1.96289V2.4228h1.96289v6.05908ZM27.88065,8.48188c-.76953,0-1.38477-.17285-1.84668-.51953-.46191-.3457-.69238-.98047-.69238-1.90381v-2.13525h-.7041v-1.55811h.7041V.35688h1.96191v2.0083h.87695v1.55811h-.87695v2.13525c0,.23096.04785.39844.14453.50195.0957.104.25195.15576.4668.15576h.49609v1.76562h-.53027ZM33.20096,8.48188h-1.96191V2.4228h-1.96191V.5185h5.88574v1.9043h-1.96191v6.05908ZM36.20194,8.48188V.40278h1.96191v2.48193c.17773-.16943.38086-.30029.6123-.39258.23047-.09229.46484-.13867.7041-.13867h.01172c.78418,0,1.375.23682,1.77148.70996.39551.47314.59375,1.10986.59375,1.91016v3.5083h-1.96191v-3.57764c0-.23096-.0791-.41553-.23633-.55371-.1582-.13867-.34473-.20801-.55957-.20801h-.02344c-.23047,0-.44043.08105-.62891.24268-.18848.16113-.2832.37305-.2832.63477v3.46191h-1.96191ZM44.74296,6.08149c.01562.20801.09961.38867.25391.54248.1543.1543.34961.23096.58887.23096h.05762c.41504,0,.74219-.16162.98047-.48486l1.52441.83057c-.23926.40039-.54102.7334-.90625.99902-.36621.26562-.89062.39746-1.57617.39746h-.17285c-.52344,0-.99023-.11328-1.40234-.34082-.41113-.22656-.73242-.53223-.96387-.91699-.23047-.38428-.3457-.80371-.3457-1.25781v-1.21191c0-.45361.11523-.87305.3457-1.25781.23145-.38477.55273-.69238.96387-.92334.41211-.23096.87891-.34619,1.40234-.34619h.17285c.50098,0,.95801.11523,1.37402.34619.41504.23096.74219.53857.98145.92334.23828.38477.35742.8042.35742,1.25781v1.21191h-3.63574ZM44.74296,4.78901h1.67383v-.03467c0-.21533-.06934-.39258-.20801-.53076-.13867-.13867-.33496-.20801-.58887-.20801h-.08105c-.23047,0-.4209.06934-.57129.20801-.14941.13818-.22461.31543-.22461.53076v.03467ZM56.37772,2.34223c.79199,0,1.38867.23633,1.78906.70947.39941.47363.59961,1.11377.59961,1.92188v3.5083h-1.96191v-3.57764c0-.23096-.0791-.41553-.23633-.55371-.1582-.13867-.34473-.20801-.55957-.20801h-.02344c-.22363,0-.4209.08105-.59473.24268-.17285.16113-.25977.37305-.25977.63477v3.46191h-1.96191v-3.57764c0-.23096-.0791-.41553-.23633-.55371-.1582-.13867-.34473-.20801-.55957-.20801h-.02344c-.22363,0-.4209.08105-.59473.24268-.17285.16113-.25977.37305-.25977.63477v3.46191h-1.96191V2.4228h1.61621l.3457.53076c.3623-.40771.81543-.61133,1.3623-.61133h.03418c.77734,0,1.3584.26514,1.74316.79639.21582-.25391.47168-.4502.76758-.58887s.61328-.20752.95215-.20752h.02344ZM61.65214,6.08149c.01562.20801.09961.38867.25391.54248.1543.1543.34961.23096.58887.23096h.05762c.41504,0,.74219-.16162.98047-.48486l1.52441.83057c-.23926.40039-.54102.7334-.90625.99902-.36621.26562-.89062.39746-1.57617.39746h-.17285c-.52344,0-.99023-.11328-1.40234-.34082-.41113-.22656-.73242-.53223-.96387-.91699-.23047-.38428-.3457-.80371-.3457-1.25781v-1.21191c0-.45361.11523-.87305.3457-1.25781.23145-.38477.55273-.69238.96387-.92334.41211-.23096.87891-.34619,1.40234-.34619h.17285c.50098,0,.95801.11523,1.37402.34619.41504.23096.74219.53857.98145.92334.23828.38477.35742.8042.35742,1.25781v1.21191h-3.63574ZM61.65214,4.78901h1.67383v-.03467c0-.21533-.06934-.39258-.20801-.53076-.13867-.13867-.33496-.20801-.58887-.20801h-.08105c-.23047,0-.4209.06934-.57129.20801-.14941.13818-.22461.31543-.22461.53076v.03467ZM6.3708,0C2.84791,0,0,2.86891,0,6.41814c0,2.83709,1.82476,5.23863,4.35618,6.08861.31649.0639.43242-.1381.43242-.30802,0-.14879-.01043-.65881-.01043-1.19021-1.7722.38261-2.14125-.76509-2.14125-.76509-.2848-.74383-.70679-.935-.70679-.935-.58004-.39317.04225-.39317.04225-.39317.64342.04251.98104.65881.98104.65881.56948.97752,1.48714.70132,1.85631.53127.05268-.41443.22156-.70132.40086-.86067-1.41346-.14879-2.9006-.70132-2.9006-3.16662,0-.70132.25299-1.2751.65385-1.72135-.06325-.15935-.2848-.81829.06338-1.70022,0,0,.53792-.17005,1.75082.65881.51928-.14049,1.05481-.21196,1.59277-.21256.53792,0,1.08627.07446,1.59264.21256,1.21303-.82885,1.75095-.65881,1.75095-.65881.34818.88193.12649,1.54086.06325,1.70022.41143.44625.65398,1.02003.65398,1.72135,0,2.46531-1.48714,3.00714-2.91116,3.16662.23212.20187.43242.58434.43242,1.19008,0,.86067-.01043,1.55143-.01043,1.76386,0,.17005.11606.37204.43242.30828,2.53142-.85024,4.35618-3.25165,4.35618-6.08874.01043-3.54923-2.84791-6.41814-6.36024-6.41814Z"></path>
</svg>